<?xml version="1.0" standalone="no"?>
<!DOCTYPE svg PUBLIC "-//W3C//DTD SVG 20010904//EN"
 "http://www.w3.org/TR/2001/REC-SVG-20010904/DTD/svg10.dtd">
<svg version="1.0" xmlns="http://www.w3.org/2000/svg"
 width="400.000000pt" height="400.000000pt" viewBox="0 0 400.000000 400.000000"
 preserveAspectRatio="xMidYMid meet">
<metadata>
Created by potrace 1.11, written by Peter Selinger 2001-2013
</metadata>
<g transform="translate(0.000000,400.000000) scale(0.100000,-0.100000)"
fill="#000000" stroke="none">
<path d="M1405 3077 c-68 -23 -101 -44 -148 -97 -53 -59 -77 -121 -77 -203 0
-53 -2 -58 -17 -52 -44 19 -71 17 -78 -4 -13 -42 31 -64 185 -95 266 -53 686
-5 698 81 5 33 -28 46 -76 29 l-40 -14 -4 81 c-7 127 -62 213 -164 259 -61 27
-216 35 -279 15z"/>
<path d="M2160 2600 l0 -99 -36 24 c-126 86 -263 -71 -194 -222 36 -80 123
-106 193 -59 l36 25 3 -22 c2 -12 10 -22 18 -22 13 0 15 34 18 238 2 232 2
237 -18 237 -19 0 -20 -6 -20 -100z m-59 -96 c42 -21 73 -92 64 -145 -10 -57
-61 -109 -108 -109 -98 0 -151 141 -85 225 35 45 79 55 129 29z"/>
<path d="M850 2674 c-25 -7 -62 -30 -84 -51 -102 -97 -102 -251 1 -348 36 -34
111 -65 158 -65 20 0 88 19 128 35 12 5 17 2 17 -9 0 -9 7 -16 15 -16 13 0 15
20 15 120 l0 120 -115 0 c-94 0 -115 -3 -115 -15 0 -11 20 -15 98 -17 l97 -3
0 -65 0 -65 -45 -24 c-91 -51 -202 -22 -265 67 -26 38 -30 52 -30 112 0 60 4
74 30 112 61 87 178 116 269 65 31 -17 47 -22 55 -14 22 22 -95 78 -159 76
-14 0 -45 -7 -70 -15z"/>
<path d="M1259 2528 c-101 -58 -106 -221 -10 -285 44 -30 122 -31 168 -3 40
24 73 87 73 140 0 36 2 40 25 40 22 0 25 -4 25 -37 0 -46 32 -112 66 -137 15
-10 46 -21 69 -24 102 -11 175 54 175 157 0 100 -50 160 -138 169 -58 5 -121
-23 -143 -64 -10 -19 -21 -24 -51 -24 -32 0 -44 6 -66 31 -50 60 -129 75 -193
37z m148 -33 c53 -35 68 -129 30 -186 -46 -69 -124 -80 -184 -26 -31 29 -37
41 -40 88 -3 42 0 61 17 87 37 59 117 76 177 37z m377 -14 c28 -29 31 -37 31
-96 0 -60 -3 -67 -33 -97 -29 -29 -39 -33 -86 -33 -44 0 -59 5 -80 24 -69 65
-54 190 27 227 48 21 104 11 141 -25z"/>
<path d="M2353 2529 c-28 -18 -33 -19 -33 -5 0 9 -7 16 -15 16 -13 0 -15 -24
-15 -160 0 -136 2 -160 15 -160 12 0 15 19 15 114 0 107 2 116 25 144 30 36
66 47 110 32 46 -15 55 -44 55 -175 0 -96 3 -115 15 -115 12 0 15 18 15 100 0
118 14 161 60 185 39 20 89 13 116 -16 16 -18 20 -40 22 -145 3 -99 7 -124 18
-124 11 0 14 23 14 119 0 106 -2 121 -23 152 -12 18 -34 40 -47 47 -38 20
-107 9 -139 -22 -25 -24 -29 -25 -41 -11 -39 47 -115 58 -167 24z"/>
<path d="M2881 2535 c-25 -11 -31 -19 -24 -26 8 -8 21 -8 47 1 74 24 146 -9
146 -67 0 -22 -4 -23 -65 -23 -71 0 -114 -16 -139 -52 -24 -34 -20 -74 12
-109 35 -40 110 -51 160 -25 28 15 32 15 32 1 0 -8 7 -15 15 -15 13 0 15 21
15 133 l0 133 -30 29 c-36 35 -115 44 -169 20z m169 -193 c0 -34 -5 -54 -17
-65 -43 -38 -132 -33 -159 8 -38 57 14 104 114 105 l62 0 0 -48z"/>
<path d="M3236 2525 c-34 -23 -36 -23 -36 -5 0 11 -7 20 -15 20 -13 0 -15 -24
-15 -160 0 -131 3 -160 14 -160 11 0 15 24 18 114 3 98 6 119 24 143 44 59
133 52 160 -13 9 -21 14 -72 14 -139 0 -87 3 -105 15 -105 12 0 15 20 15 118
0 98 -3 122 -20 149 -39 64 -112 80 -174 38z"/>
<path d="M1446 2162 c-10 -2 -37 -17 -59 -33 -43 -31 -66 -35 -98 -18 -19 10
-20 9 -9 -11 31 -57 145 -80 205 -40 27 18 30 18 48 3 11 -11 41 -19 81 -21
62 -4 65 -3 105 33 23 21 40 39 38 41 -2 2 -17 -2 -34 -8 -29 -11 -36 -9 -85
22 -43 27 -64 33 -113 35 -33 1 -69 -1 -79 -3z"/>
<path d="M2064 1808 c-29 -14 -44 -49 -44 -103 0 -41 -2 -45 -25 -45 -16 0
-25 -6 -25 -15 0 -9 9 -15 25 -15 l25 0 0 -145 c0 -122 2 -145 15 -145 13 0
15 23 15 145 l0 146 68 -3 67 -3 3 -142 c2 -118 5 -143 17 -143 13 0 15 24 15
145 l0 145 40 0 c29 0 40 4 40 15 0 11 -11 15 -40 15 l-40 0 0 48 c0 67 22 87
85 78 48 -8 61 5 26 24 -31 16 -87 12 -112 -9 -18 -15 -25 -32 -29 -77 l-5
-59 -67 -3 -68 -3 0 46 c0 68 51 106 100 75 9 -6 19 -5 28 2 32 27 -67 49
-114 26z"/>
<path d="M1305 1780 c-84 -38 -135 -119 -135 -214 0 -163 151 -272 310 -225
21 6 51 22 66 35 23 18 26 25 17 35 -10 10 -16 9 -32 -5 -26 -24 -88 -45 -131
-45 -71 -1 -157 58 -186 127 -72 173 123 349 285 257 45 -26 71 -32 71 -16 0
11 -43 42 -83 59 -41 17 -135 14 -182 -8z"/>
<path d="M1725 1659 c-17 -4 -46 -25 -65 -44 -34 -35 -35 -39 -35 -113 0 -61
4 -82 20 -104 27 -35 64 -56 111 -63 54 -7 102 13 138 58 28 35 31 46 31 105
0 81 -25 124 -89 153 -45 20 -65 22 -111 8z m112 -45 c79 -50 80 -182 1 -228
-34 -20 -96 -23 -128 -6 -33 18 -60 70 -60 118 0 61 24 100 73 122 44 20 75
18 114 -6z"/>
<path d="M2422 1655 c-62 -27 -92 -79 -92 -155 0 -116 84 -189 186 -161 50 14
88 49 72 68 -9 11 -15 10 -33 -7 -52 -49 -132 -41 -172 19 -40 59 -37 61 107
61 l130 0 0 28 c0 37 -39 111 -70 134 -35 26 -89 31 -128 13z m104 -36 c25
-13 54 -59 54 -88 0 -20 -5 -21 -110 -21 -124 0 -129 4 -90 68 33 54 87 69
146 41z"/>
<path d="M2760 1659 c-103 -41 -134 -194 -57 -278 52 -57 139 -63 198 -14 24
20 27 28 18 40 -10 12 -16 10 -39 -12 -55 -53 -152 -28 -176 46 l-12 34 130 3
131 3 -5 44 c-7 55 -47 112 -94 131 -38 16 -59 17 -94 3z m110 -44 c16 -10 51
-85 45 -95 -7 -11 -208 -14 -218 -4 -8 8 13 65 31 87 28 32 99 38 142 12z"/>
<path d="M1492 1058 c-7 -7 -12 -39 -12 -75 0 -51 3 -64 19 -73 24 -12 48 -4
61 21 13 24 13 29 -4 29 -7 0 -16 -9 -19 -20 -3 -13 -10 -18 -21 -14 -12 5
-16 20 -16 59 0 57 15 79 35 52 13 -18 35 -23 35 -9 0 14 -35 42 -51 42 -8 0
-20 -5 -27 -12z"/>
<path d="M1600 1051 c-13 -25 -13 -97 0 -120 13 -25 37 -33 61 -21 16 9 19 22
19 73 0 36 -5 68 -12 75 -18 18 -56 14 -68 -7z m58 -61 c3 -51 -9 -77 -30 -64
-10 6 -11 108 -1 118 16 16 28 -4 31 -54z"/>
<path d="M1714 1057 c-3 -8 -4 -45 -2 -83 3 -73 21 -95 26 -31 3 29 7 37 23
37 10 0 19 5 19 10 0 6 -9 10 -20 10 -15 0 -20 7 -20 25 0 18 5 25 20 25 11 0
20 5 20 10 0 15 -60 12 -66 -3z"/>
<path d="M1812 988 c3 -83 20 -112 26 -44 2 27 8 36 25 39 l22 4 -22 8 c-31
10 -32 55 -2 55 11 0 17 5 14 10 -3 6 -20 10 -36 10 l-30 0 3 -82z"/>
<path d="M1912 988 c3 -82 3 -83 31 -86 31 -4 37 13 7 21 -12 3 -20 14 -20 27
0 13 8 24 20 27 11 3 20 9 20 14 0 5 -9 9 -20 9 -15 0 -20 7 -20 25 0 18 5 25
20 25 11 0 20 5 20 10 0 6 -14 10 -30 10 l-31 0 3 -82z"/>
<path d="M2004 1057 c-3 -8 -4 -45 -2 -83 3 -64 5 -69 27 -72 13 -2 28 1 34 7
8 8 5 11 -11 11 -18 0 -22 6 -22 30 0 23 4 30 20 30 11 0 20 5 20 10 0 6 -9
10 -20 10 -15 0 -20 7 -20 25 0 18 5 25 20 25 11 0 20 5 20 10 0 15 -60 12
-66 -3z"/>
<path d="M2150 1061 c0 -5 7 -11 15 -15 11 -4 15 -22 15 -76 0 -40 4 -70 10
-70 6 0 10 32 10 75 0 43 4 75 10 75 6 0 10 5 10 10 0 6 -16 10 -35 10 -19 0
-35 -4 -35 -9z"/>
<path d="M2262 1058 c-7 -7 -12 -38 -12 -70 0 -50 3 -60 24 -73 19 -13 29 -14
45 -5 18 9 21 20 21 73 0 67 -10 87 -45 87 -12 0 -26 -5 -33 -12z m56 -61 c3
-47 -11 -82 -29 -71 -5 3 -9 32 -9 65 0 52 2 60 18 57 13 -2 18 -15 20 -51z"/>
<path d="M2442 1058 c-7 -7 -12 -39 -12 -75 0 -51 3 -64 19 -73 21 -10 51 -4
63 14 4 6 8 26 8 44 0 25 -4 32 -19 32 -11 0 -23 -4 -26 -10 -3 -5 -1 -10 5
-10 14 0 9 -50 -5 -53 -6 -1 -11 26 -13 61 -2 51 0 62 13 62 8 0 15 -7 15 -15
0 -8 7 -15 15 -15 8 0 15 6 15 13 0 19 -21 37 -45 37 -12 0 -26 -5 -33 -12z"/>
<path d="M2562 1058 c-7 -7 -12 -39 -12 -75 0 -57 2 -65 23 -72 48 -18 67 4
67 80 0 59 -11 79 -45 79 -12 0 -26 -5 -33 -12z m56 -61 c3 -47 -11 -82 -29
-71 -5 3 -9 32 -9 65 0 52 2 60 18 57 13 -2 18 -15 20 -51z"/>
</g>
</svg>
